<svg width="44" height="42" viewBox="0 0 44 42" fill="none" xmlns="http://www.w3.org/2000/svg">
<path d="M7.33343 14.6667H1.4667C0.656748 14.6667 0 15.3233 0 16.1334V39.5999C0 40.4098 0.65665 41.0666 1.4667 41.0666H7.33333C8.14329 41.0666 8.80003 40.4099 8.80003 39.5999V16.1333C8.80003 15.3233 8.14348 14.6667 7.33343 14.6667Z" fill="white"/>
<path d="M43.9708 18.5545C43.7121 16.2793 41.5868 14.6667 39.297 14.6667H27.8624C28.8342 12.9266 29.3558 8.00511 29.3326 5.99466C29.2943 2.66681 26.5384 0 23.2104 0H22.0002C21.1896 0 20.5335 0.655968 20.5335 1.46671C20.5335 4.85828 19.2129 10.98 16.7222 13.4708C15.0458 15.1472 13.6127 15.7546 11.7335 16.6938V38.701C14.6106 39.66 18.2636 41.0667 23.8315 41.0667H33.4257C36.5869 41.0667 39.049 38.1388 37.824 35.0454C39.6903 34.537 41.0667 32.8253 41.0667 30.8C41.0667 30.2285 40.9564 29.6814 40.7573 29.1786C43.9024 28.3218 45.0601 24.4384 42.8772 22C43.6791 21.1041 44.1214 19.8786 43.9708 18.5545Z" fill="white"/>
</svg>
