<svg width="10" height="11" viewBox="0 0 10 11" fill="none" xmlns="http://www.w3.org/2000/svg">
<path d="M9.08955 2.67248L6.35524 0.0944238C6.29142 0.0342246 6.20431 0 6.11353 0H1.32837C0.762969 0 0.302979 0.433705 0.302979 0.966797V10.0332C0.302979 10.5663 0.762969 11 1.32837 11H8.16431C8.72971 11 9.1897 10.5663 9.1897 10.0332V2.90039C9.1897 2.81252 9.15057 2.73 9.08955 2.67248ZM6.45532 1.10028L8.02273 2.57812H6.79712C6.60865 2.57812 6.45532 2.43356 6.45532 2.25586V1.10028ZM8.16431 10.3555H1.32837C1.1399 10.3555 0.986572 10.2109 0.986572 10.0332V0.966797C0.986572 0.7891 1.1399 0.644531 1.32837 0.644531H5.77173V2.25586C5.77173 2.78895 6.23172 3.22266 6.79712 3.22266H8.5061V10.0332C8.5061 10.2109 8.35277 10.3555 8.16431 10.3555Z" fill="#A8A8A8"/>
<path d="M6.79712 4.55469H2.69556C2.50679 4.55469 2.35376 4.69898 2.35376 4.87695C2.35376 5.05493 2.50679 5.19922 2.69556 5.19922H6.79712C6.98588 5.19922 7.13892 5.05493 7.13892 4.87695C7.13892 4.69898 6.98588 4.55469 6.79712 4.55469Z" fill="#A8A8A8"/>
<path d="M6.79712 5.84399H2.69556C2.50679 5.84399 2.35376 5.98828 2.35376 6.16626C2.35376 6.34424 2.50679 6.48853 2.69556 6.48853H6.79712C6.98588 6.48853 7.13892 6.34424 7.13892 6.16626C7.13892 5.98828 6.98588 5.84399 6.79712 5.84399Z" fill="#A8A8A8"/>
<path d="M6.79712 7.13281H2.69556C2.50679 7.13281 2.35376 7.2771 2.35376 7.45508C2.35376 7.63305 2.50679 7.77734 2.69556 7.77734H6.79712C6.98588 7.77734 7.13892 7.63305 7.13892 7.45508C7.13892 7.2771 6.98588 7.13281 6.79712 7.13281Z" fill="#A8A8A8"/>
<path d="M5.42993 8.42188H2.69556C2.50679 8.42188 2.35376 8.56616 2.35376 8.74414C2.35376 8.92212 2.50679 9.06641 2.69556 9.06641H5.42993C5.61869 9.06641 5.77173 8.92212 5.77173 8.74414C5.77173 8.56616 5.61869 8.42188 5.42993 8.42188Z" fill="#A8A8A8"/>
</svg>
